<svg xmlns="http://www.w3.org/2000/svg" xmlns:xlink="http://www.w3.org/1999/xlink" width="225" zoomAndPan="magnify" viewBox="0 0 168.75 60" height="80" preserveAspectRatio="xMidYMid meet" version="1.0"><defs><g/><clipPath id="aa08d9cdd0"><path d="M 0 0.0429688 L 168.5 0.0429688 L 168.5 59.953125 L 0 59.953125 Z M 0 0.0429688 " clip-rule="nonzero"/></clipPath><clipPath id="239e9e526d"><path d="M 0 6 L 168.5 6 L 168.5 57 L 0 57 Z M 0 6 " clip-rule="nonzero"/></clipPath><clipPath id="8d720eb8b5"><rect x="0" width="169" y="0" height="51"/></clipPath></defs><g clip-path="url(#aa08d9cdd0)"><path fill="#ffffff" d="M 0 0.0429688 L 168.5 0.0429688 L 168.5 59.957031 L 0 59.957031 Z M 0 0.0429688 " fill-opacity="1" fill-rule="nonzero"/><path fill="#f1f5ff" d="M 0 0.0429688 L 168.5 0.0429688 L 168.5 59.957031 L 0 59.957031 Z M 0 0.0429688 " fill-opacity="1" fill-rule="nonzero"/></g><g clip-path="url(#239e9e526d)"><g transform="matrix(1, 0, 0, 1, 0, 6)"><g clip-path="url(#8d720eb8b5)"><g fill="#000000" fill-opacity="1"><g transform="translate(-1.094561, 31.656773)"><g><path d="M 25.984375 -7.265625 C 26.054688 -7.128906 26.0625 -6.988281 26 -6.84375 C 25.945312 -6.695312 25.851562 -6.59375 25.71875 -6.53125 C 25.132812 -6.257812 24.351562 -6.03125 23.375 -5.84375 C 22.40625 -5.65625 21.289062 -5.476562 20.03125 -5.3125 C 19.738281 -3.988281 19.4375 -2.566406 19.125 -1.046875 C 18.8125 0.460938 18.515625 1.988281 18.234375 3.53125 C 17.953125 5.082031 17.6875 6.570312 17.4375 8 C 17.195312 9.425781 16.992188 10.734375 16.828125 11.921875 C 16.671875 13.109375 16.539062 14.101562 16.4375 14.90625 C 16.59375 14.820312 16.75 14.8125 16.90625 14.875 C 17.039062 14.925781 17.140625 15.019531 17.203125 15.15625 C 17.273438 15.289062 17.296875 15.4375 17.265625 15.59375 C 17.046875 16.175781 16.84375 16.640625 16.65625 16.984375 C 16.476562 17.335938 16.253906 17.515625 15.984375 17.515625 C 15.921875 17.515625 15.851562 17.507812 15.78125 17.5 C 15.488281 17.394531 15.316406 17.128906 15.265625 16.703125 C 15.210938 16.273438 15.253906 15.453125 15.390625 14.234375 C 15.566406 12.691406 15.867188 10.628906 16.296875 8.046875 C 16.585938 6.390625 16.898438 4.675781 17.234375 2.90625 C 17.566406 1.144531 17.894531 -0.53125 18.21875 -2.125 C 16.570312 0.882812 14.921875 3.40625 13.265625 5.4375 C 11.609375 7.46875 10.03125 8.925781 8.53125 9.8125 C 7.039062 10.695312 5.691406 10.914062 4.484375 10.46875 C 3.378906 10.0625 2.570312 9.132812 2.0625 7.6875 C 1.5625 6.238281 1.375 4.363281 1.5 2.0625 C 1.625 -0.226562 2.085938 -2.832031 2.890625 -5.75 C 3.210938 -6.988281 3.660156 -8.351562 4.234375 -9.84375 C 4.816406 -11.332031 5.46875 -12.859375 6.1875 -14.421875 C 6.914062 -15.984375 7.707031 -17.519531 8.5625 -19.03125 C 9.425781 -20.550781 10.304688 -21.96875 11.203125 -23.28125 C 12.109375 -24.59375 13.007812 -25.722656 13.90625 -26.671875 C 14.800781 -27.628906 15.691406 -28.265625 16.578125 -28.578125 C 17.460938 -28.890625 18.242188 -28.859375 18.921875 -28.484375 C 19.253906 -28.304688 19.582031 -27.96875 19.90625 -27.46875 C 20.238281 -26.976562 20.488281 -26.25 20.65625 -25.28125 C 20.820312 -24.3125 20.828125 -23.019531 20.671875 -21.40625 C 20.515625 -19.789062 20.109375 -17.769531 19.453125 -15.34375 C 19.410156 -15.1875 19.320312 -15.066406 19.1875 -14.984375 C 19.050781 -14.910156 18.914062 -14.890625 18.78125 -14.921875 C 18.625 -14.960938 18.503906 -15.050781 18.421875 -15.1875 C 18.347656 -15.320312 18.332031 -15.46875 18.375 -15.625 C 19.050781 -18.15625 19.453125 -20.253906 19.578125 -21.921875 C 19.703125 -23.597656 19.640625 -24.882812 19.390625 -25.78125 C 19.148438 -26.6875 18.8125 -27.257812 18.375 -27.5 C 17.945312 -27.75 17.40625 -27.726562 16.75 -27.4375 C 16.101562 -27.144531 15.425781 -26.640625 14.71875 -25.921875 C 13.84375 -24.984375 12.960938 -23.875 12.078125 -22.59375 C 11.203125 -21.3125 10.347656 -19.929688 9.515625 -18.453125 C 8.691406 -16.972656 7.921875 -15.46875 7.203125 -13.9375 C 6.484375 -12.40625 5.84375 -10.910156 5.28125 -9.453125 C 4.726562 -8.003906 4.289062 -6.671875 3.96875 -5.453125 C 2.800781 -1.160156 2.363281 2.359375 2.65625 5.109375 C 2.769531 6.273438 3.019531 7.226562 3.40625 7.96875 C 3.800781 8.71875 4.296875 9.203125 4.890625 9.421875 C 5.617188 9.691406 6.488281 9.582031 7.5 9.09375 C 8.519531 8.613281 9.613281 7.78125 10.78125 6.59375 C 12.050781 5.3125 13.335938 3.671875 14.640625 1.671875 C 15.941406 -0.316406 17.234375 -2.582031 18.515625 -5.125 C 17.929688 -5.070312 17.320312 -5.007812 16.6875 -4.9375 C 16.0625 -4.875 15.425781 -4.8125 14.78125 -4.75 C 13.726562 -4.632812 12.660156 -4.519531 11.578125 -4.40625 C 10.503906 -4.289062 9.453125 -4.164062 8.421875 -4.03125 C 8.398438 -4.03125 8.382812 -4.03125 8.375 -4.03125 C 8.039062 -4.03125 7.851562 -4.191406 7.8125 -4.515625 C 7.789062 -4.671875 7.820312 -4.8125 7.90625 -4.9375 C 8 -5.0625 8.125 -5.132812 8.28125 -5.15625 C 9.3125 -5.289062 10.363281 -5.410156 11.4375 -5.515625 C 12.519531 -5.628906 13.597656 -5.742188 14.671875 -5.859375 C 15.421875 -5.941406 16.171875 -6.019531 16.921875 -6.09375 C 17.671875 -6.164062 18.394531 -6.242188 19.09375 -6.328125 C 19.113281 -6.367188 19.128906 -6.398438 19.140625 -6.421875 C 19.148438 -6.453125 19.164062 -6.488281 19.1875 -6.53125 C 19.320312 -6.84375 19.554688 -6.941406 19.890625 -6.828125 C 20.046875 -6.765625 20.160156 -6.644531 20.234375 -6.46875 C 21.335938 -6.625 22.328125 -6.785156 23.203125 -6.953125 C 24.078125 -7.117188 24.757812 -7.316406 25.25 -7.546875 C 25.382812 -7.609375 25.523438 -7.609375 25.671875 -7.546875 C 25.816406 -7.492188 25.921875 -7.398438 25.984375 -7.265625 Z M 25.984375 -7.265625 "/></g></g></g><g fill="#000000" fill-opacity="1"><g transform="translate(25.916754, 31.656773)"><g><path d="M 12.796875 -6.625 C 12.929688 -6.539062 13.023438 -6.425781 13.078125 -6.28125 C 13.140625 -6.132812 13.132812 -5.992188 13.0625 -5.859375 C 12.695312 -5.066406 12.242188 -4.171875 11.703125 -3.171875 C 11.171875 -2.179688 10.601562 -1.1875 10 -0.1875 C 9.394531 0.8125 8.78125 1.722656 8.15625 2.546875 C 7.539062 3.378906 6.941406 4.050781 6.359375 4.5625 C 5.773438 5.070312 5.25 5.328125 4.78125 5.328125 C 4.644531 5.328125 4.519531 5.300781 4.40625 5.25 C 4 5.09375 3.726562 4.722656 3.59375 4.140625 C 3.46875 3.554688 3.484375 2.71875 3.640625 1.625 C 3.910156 -0.332031 4.628906 -3.109375 5.796875 -6.703125 C 5.773438 -6.703125 5.757812 -6.695312 5.75 -6.6875 C 5.75 -6.675781 5.738281 -6.671875 5.71875 -6.671875 C 5.320312 -6.398438 4.851562 -6.117188 4.3125 -5.828125 C 3.769531 -5.535156 3.207031 -5.34375 2.625 -5.25 C 2.039062 -5.15625 1.488281 -5.28125 0.96875 -5.625 C 0.226562 -6.15625 -0.148438 -6.882812 -0.171875 -7.8125 C -0.191406 -8.75 0.15625 -9.769531 0.875 -10.875 C 1.101562 -11.226562 1.40625 -11.617188 1.78125 -12.046875 C 2.164062 -12.472656 2.566406 -12.800781 2.984375 -13.03125 C 3.398438 -13.257812 3.773438 -13.269531 4.109375 -13.0625 C 4.285156 -12.96875 4.414062 -12.800781 4.5 -12.5625 C 4.59375 -12.332031 4.585938 -11.972656 4.484375 -11.484375 C 4.390625 -11.003906 4.15625 -10.351562 3.78125 -9.53125 C 3.414062 -8.71875 2.863281 -7.660156 2.125 -6.359375 C 2.570312 -6.296875 3.070312 -6.421875 3.625 -6.734375 C 4.175781 -7.046875 4.671875 -7.335938 5.109375 -7.609375 C 5.515625 -7.878906 5.851562 -8.078125 6.125 -8.203125 C 6.394531 -8.328125 6.644531 -8.304688 6.875 -8.140625 C 7.09375 -7.960938 7.179688 -7.742188 7.140625 -7.484375 C 7.097656 -7.234375 7.0625 -7.039062 7.03125 -6.90625 C 6.382812 -4.882812 5.882812 -3.203125 5.53125 -1.859375 C 5.1875 -0.523438 4.953125 0.546875 4.828125 1.359375 C 4.703125 2.179688 4.640625 2.796875 4.640625 3.203125 C 4.640625 3.609375 4.664062 3.875 4.71875 4 C 4.78125 4.132812 4.8125 4.210938 4.8125 4.234375 C 5.039062 4.265625 5.519531 3.882812 6.25 3.09375 C 6.976562 2.3125 7.847656 1.128906 8.859375 -0.453125 C 9.867188 -2.035156 10.929688 -3.992188 12.046875 -6.328125 C 12.117188 -6.484375 12.226562 -6.582031 12.375 -6.625 C 12.519531 -6.675781 12.660156 -6.675781 12.796875 -6.625 Z M 1.046875 -8.59375 C 0.929688 -8.1875 0.894531 -7.851562 0.9375 -7.59375 C 0.988281 -7.332031 1.066406 -7.125 1.171875 -6.96875 C 1.785156 -8.050781 2.253906 -8.929688 2.578125 -9.609375 C 2.898438 -10.296875 3.117188 -10.820312 3.234375 -11.1875 C 3.347656 -11.5625 3.414062 -11.828125 3.4375 -11.984375 C 3.226562 -11.867188 2.960938 -11.644531 2.640625 -11.3125 C 2.316406 -10.976562 2.003906 -10.578125 1.703125 -10.109375 C 1.398438 -9.648438 1.179688 -9.144531 1.046875 -8.59375 Z M 1.046875 -8.59375 "/></g></g></g><g fill="#000000" fill-opacity="1"><g transform="translate(37.542989, 31.656773)"><g><path d="M 12.21875 -6.46875 C 12.351562 -6.414062 12.441406 -6.316406 12.484375 -6.171875 C 12.535156 -6.023438 12.535156 -5.882812 12.484375 -5.75 C 12.109375 -4.988281 11.703125 -4.226562 11.265625 -3.46875 C 10.828125 -2.707031 10.367188 -2.007812 9.890625 -1.375 C 9.421875 -0.75 8.929688 -0.25 8.421875 0.125 C 7.921875 0.507812 7.414062 0.703125 6.90625 0.703125 C 6.8125 0.703125 6.707031 0.691406 6.59375 0.671875 C 5.289062 0.421875 4.484375 -1.328125 4.171875 -4.578125 C 3.835938 -4.128906 3.453125 -3.628906 3.015625 -3.078125 C 2.578125 -2.523438 2.113281 -1.972656 1.625 -1.421875 C 1.550781 -1.347656 1.425781 -1.226562 1.25 -1.0625 C 1.070312 -0.894531 0.867188 -0.765625 0.640625 -0.671875 C 0.410156 -0.578125 0.175781 -0.585938 -0.0625 -0.703125 C -0.53125 -0.878906 -0.753906 -1.382812 -0.734375 -2.21875 C -0.734375 -2.695312 -0.640625 -3.296875 -0.453125 -4.015625 C -0.265625 -4.742188 -0.00390625 -5.46875 0.328125 -6.1875 C 0.671875 -6.914062 1.070312 -7.5625 1.53125 -8.125 C 1.988281 -8.695312 2.5 -9.078125 3.0625 -9.265625 C 3.414062 -9.398438 3.84375 -9.425781 4.34375 -9.34375 C 4.851562 -9.257812 5.378906 -8.894531 5.921875 -8.25 C 6.015625 -8.132812 6.054688 -8 6.046875 -7.84375 C 6.035156 -7.6875 5.972656 -7.5625 5.859375 -7.46875 C 5.742188 -7.363281 5.609375 -7.316406 5.453125 -7.328125 C 5.296875 -7.335938 5.171875 -7.398438 5.078125 -7.515625 C 4.609375 -8.066406 4.203125 -8.328125 3.859375 -8.296875 C 3.523438 -8.265625 3.238281 -8.160156 3 -7.984375 C 2.570312 -7.671875 2.179688 -7.222656 1.828125 -6.640625 C 1.484375 -6.054688 1.191406 -5.441406 0.953125 -4.796875 C 0.722656 -4.160156 0.5625 -3.566406 0.46875 -3.015625 C 0.375 -2.460938 0.34375 -2.0625 0.375 -1.8125 C 0.4375 -1.84375 0.5 -1.890625 0.5625 -1.953125 C 0.632812 -2.015625 0.707031 -2.09375 0.78125 -2.1875 C 1.363281 -2.832031 1.898438 -3.46875 2.390625 -4.09375 C 2.878906 -4.726562 3.296875 -5.285156 3.640625 -5.765625 C 3.742188 -5.910156 3.835938 -6.046875 3.921875 -6.171875 C 4.003906 -6.296875 4.085938 -6.40625 4.171875 -6.5 C 4.328125 -6.695312 4.53125 -6.753906 4.78125 -6.671875 C 5.03125 -6.617188 5.164062 -6.457031 5.1875 -6.1875 C 5.25 -4.914062 5.351562 -3.894531 5.5 -3.125 C 5.644531 -2.363281 5.800781 -1.789062 5.96875 -1.40625 C 6.144531 -1.03125 6.3125 -0.773438 6.46875 -0.640625 C 6.625 -0.503906 6.742188 -0.4375 6.828125 -0.4375 C 7.191406 -0.363281 7.78125 -0.742188 8.59375 -1.578125 C 9.414062 -2.410156 10.367188 -3.953125 11.453125 -6.203125 C 11.535156 -6.359375 11.648438 -6.460938 11.796875 -6.515625 C 11.941406 -6.566406 12.082031 -6.550781 12.21875 -6.46875 Z M 12.21875 -6.46875 "/></g></g></g><g fill="#000000" fill-opacity="1"><g transform="translate(48.382476, 31.656773)"><g><path d="M 9.859375 -6.5 C 9.992188 -6.425781 10.070312 -6.3125 10.09375 -6.15625 C 10.113281 -6 10.082031 -5.863281 10 -5.75 C 8.851562 -4.15625 7.800781 -2.835938 6.84375 -1.796875 C 5.894531 -0.753906 4.945312 0.101562 4 0.78125 C 3.28125 1.289062 2.566406 1.546875 1.859375 1.546875 C 1.316406 1.546875 0.84375 1.398438 0.4375 1.109375 C 0.164062 0.910156 -0.0976562 0.5625 -0.359375 0.0625 C -0.628906 -0.425781 -0.769531 -1.140625 -0.78125 -2.078125 C -0.800781 -3.023438 -0.570312 -4.265625 -0.09375 -5.796875 C -0.09375 -5.796875 -0.09375 -5.804688 -0.09375 -5.828125 C 0.488281 -7.691406 1.175781 -9.113281 1.96875 -10.09375 C 2.757812 -11.082031 3.4375 -11.585938 4 -11.609375 C 4.445312 -11.628906 4.738281 -11.429688 4.875 -11.015625 C 5.082031 -10.453125 4.828125 -9.648438 4.109375 -8.609375 C 3.390625 -7.578125 2.332031 -6.476562 0.9375 -5.3125 C 0.507812 -3.945312 0.300781 -2.878906 0.3125 -2.109375 C 0.332031 -1.347656 0.441406 -0.796875 0.640625 -0.453125 C 0.835938 -0.109375 0.992188 0.109375 1.109375 0.203125 C 1.691406 0.628906 2.441406 0.515625 3.359375 -0.140625 C 4.242188 -0.765625 5.144531 -1.578125 6.0625 -2.578125 C 6.976562 -3.578125 7.976562 -4.847656 9.0625 -6.390625 C 9.164062 -6.503906 9.296875 -6.570312 9.453125 -6.59375 C 9.609375 -6.625 9.742188 -6.59375 9.859375 -6.5 Z M 3.796875 -10.375 C 3.578125 -10.238281 3.28125 -9.953125 2.90625 -9.515625 C 2.539062 -9.078125 2.164062 -8.441406 1.78125 -7.609375 C 2.476562 -8.285156 2.972656 -8.863281 3.265625 -9.34375 C 3.554688 -9.820312 3.734375 -10.164062 3.796875 -10.375 Z M 3.796875 -10.375 "/></g></g></g><g fill="#000000" fill-opacity="1"><g transform="translate(56.861754, 31.656773)"><g><path d="M 16.4375 -6.53125 C 16.5625 -6.4375 16.625 -6.3125 16.625 -6.15625 C 16.632812 -6 16.59375 -5.863281 16.5 -5.75 C 14.03125 -2.851562 12.078125 -1.675781 10.640625 -2.21875 C 9.609375 -2.601562 9.054688 -3.835938 8.984375 -5.921875 C 8.765625 -5.523438 8.535156 -5.078125 8.296875 -4.578125 C 8.054688 -4.085938 7.859375 -3.6875 7.703125 -3.375 C 7.578125 -3.082031 7.457031 -2.820312 7.34375 -2.59375 C 7.226562 -2.363281 7.125 -2.171875 7.03125 -2.015625 C 6.96875 -1.898438 6.863281 -1.726562 6.71875 -1.5 C 6.570312 -1.28125 6.382812 -1.085938 6.15625 -0.921875 C 5.9375 -0.753906 5.679688 -0.707031 5.390625 -0.78125 C 5.046875 -0.882812 4.785156 -1.144531 4.609375 -1.5625 C 4.429688 -1.976562 4.320312 -2.429688 4.28125 -2.921875 C 4.25 -3.421875 4.234375 -3.828125 4.234375 -4.140625 C 4.234375 -4.390625 4.234375 -4.628906 4.234375 -4.859375 C 4.234375 -5.097656 4.238281 -5.316406 4.25 -5.515625 C 3.570312 -4.535156 2.921875 -3.523438 2.296875 -2.484375 C 1.679688 -1.453125 1.023438 -0.265625 0.328125 1.078125 C 0.0859375 1.523438 -0.164062 1.75 -0.4375 1.75 C -0.53125 1.75 -0.617188 1.71875 -0.703125 1.65625 C -0.796875 1.625 -0.878906 1.5625 -0.953125 1.46875 C -1.035156 1.382812 -1.082031 1.207031 -1.09375 0.9375 C -1.101562 0.675781 -1.0625 0.273438 -0.96875 -0.265625 C -0.882812 -0.804688 -0.71875 -1.5625 -0.46875 -2.53125 C -0.175781 -3.71875 0.164062 -4.894531 0.5625 -6.0625 C 0.96875 -7.226562 1.375 -8.28125 1.78125 -9.21875 C 1.832031 -9.375 1.929688 -9.476562 2.078125 -9.53125 C 2.222656 -9.59375 2.363281 -9.582031 2.5 -9.5 C 2.65625 -9.445312 2.757812 -9.347656 2.8125 -9.203125 C 2.863281 -9.054688 2.859375 -8.914062 2.796875 -8.78125 C 2.273438 -7.550781 1.804688 -6.269531 1.390625 -4.9375 C 0.972656 -3.601562 0.644531 -2.441406 0.40625 -1.453125 C 1.007812 -2.523438 1.601562 -3.519531 2.1875 -4.4375 C 2.769531 -5.363281 3.382812 -6.265625 4.03125 -7.140625 C 4.082031 -7.222656 4.179688 -7.332031 4.328125 -7.46875 C 4.472656 -7.601562 4.671875 -7.628906 4.921875 -7.546875 C 5.179688 -7.453125 5.320312 -7.269531 5.34375 -7 C 5.375 -6.726562 5.378906 -6.269531 5.359375 -5.625 C 5.359375 -5.414062 5.351562 -5.179688 5.34375 -4.921875 C 5.332031 -4.671875 5.328125 -4.410156 5.328125 -4.140625 C 5.328125 -3.554688 5.363281 -3.078125 5.4375 -2.703125 C 5.519531 -2.335938 5.59375 -2.085938 5.65625 -1.953125 C 5.695312 -1.992188 5.75 -2.0625 5.8125 -2.15625 C 5.882812 -2.25 5.96875 -2.375 6.0625 -2.53125 C 6.144531 -2.664062 6.238281 -2.847656 6.34375 -3.078125 C 6.445312 -3.316406 6.566406 -3.570312 6.703125 -3.84375 C 7.210938 -4.9375 7.625 -5.773438 7.9375 -6.359375 C 8.257812 -6.941406 8.535156 -7.335938 8.765625 -7.546875 C 9.003906 -7.765625 9.25 -7.84375 9.5 -7.78125 C 9.8125 -7.707031 9.992188 -7.519531 10.046875 -7.21875 C 10.097656 -6.914062 10.125 -6.675781 10.125 -6.5 C 10.101562 -5.582031 10.171875 -4.84375 10.328125 -4.28125 C 10.492188 -3.71875 10.734375 -3.378906 11.046875 -3.265625 C 11.398438 -3.128906 11.957031 -3.285156 12.71875 -3.734375 C 13.488281 -4.179688 14.46875 -5.09375 15.65625 -6.46875 C 15.75 -6.582031 15.875 -6.644531 16.03125 -6.65625 C 16.1875 -6.664062 16.320312 -6.625 16.4375 -6.53125 Z M 16.4375 -6.53125 "/></g></g></g><g fill="#000000" fill-opacity="1"><g transform="translate(72.042865, 31.656773)"><g><path d="M 9.859375 -6.5 C 9.992188 -6.425781 10.070312 -6.3125 10.09375 -6.15625 C 10.113281 -6 10.082031 -5.863281 10 -5.75 C 8.851562 -4.15625 7.800781 -2.835938 6.84375 -1.796875 C 5.894531 -0.753906 4.945312 0.101562 4 0.78125 C 3.28125 1.289062 2.566406 1.546875 1.859375 1.546875 C 1.316406 1.546875 0.84375 1.398438 0.4375 1.109375 C 0.164062 0.910156 -0.0976562 0.5625 -0.359375 0.0625 C -0.628906 -0.425781 -0.769531 -1.140625 -0.78125 -2.078125 C -0.800781 -3.023438 -0.570312 -4.265625 -0.09375 -5.796875 C -0.09375 -5.796875 -0.09375 -5.804688 -0.09375 -5.828125 C 0.488281 -7.691406 1.175781 -9.113281 1.96875 -10.09375 C 2.757812 -11.082031 3.4375 -11.585938 4 -11.609375 C 4.445312 -11.628906 4.738281 -11.429688 4.875 -11.015625 C 5.082031 -10.453125 4.828125 -9.648438 4.109375 -8.609375 C 3.390625 -7.578125 2.332031 -6.476562 0.9375 -5.3125 C 0.507812 -3.945312 0.300781 -2.878906 0.3125 -2.109375 C 0.332031 -1.347656 0.441406 -0.796875 0.640625 -0.453125 C 0.835938 -0.109375 0.992188 0.109375 1.109375 0.203125 C 1.691406 0.628906 2.441406 0.515625 3.359375 -0.140625 C 4.242188 -0.765625 5.144531 -1.578125 6.0625 -2.578125 C 6.976562 -3.578125 7.976562 -4.847656 9.0625 -6.390625 C 9.164062 -6.503906 9.296875 -6.570312 9.453125 -6.59375 C 9.609375 -6.625 9.742188 -6.59375 9.859375 -6.5 Z M 3.796875 -10.375 C 3.578125 -10.238281 3.28125 -9.953125 2.90625 -9.515625 C 2.539062 -9.078125 2.164062 -8.441406 1.78125 -7.609375 C 2.476562 -8.285156 2.972656 -8.863281 3.265625 -9.34375 C 3.554688 -9.820312 3.734375 -10.164062 3.796875 -10.375 Z M 3.796875 -10.375 "/></g></g></g><g fill="#000000" fill-opacity="1"><g transform="translate(80.522144, 31.656773)"><g/></g></g><g fill="#000000" fill-opacity="1"><g transform="translate(89.467646, 31.656773)"><g><path d="M 24.078125 -11.921875 C 24.835938 -10.992188 25.367188 -9.894531 25.671875 -8.625 C 25.972656 -7.363281 26.039062 -6.019531 25.875 -4.59375 C 25.707031 -3.164062 25.304688 -1.722656 24.671875 -0.265625 C 23.710938 1.929688 22.382812 3.847656 20.6875 5.484375 C 18.988281 7.117188 17 8.421875 14.71875 9.390625 C 12.445312 10.359375 9.96875 10.941406 7.28125 11.140625 C 7.28125 11.140625 7.273438 11.140625 7.265625 11.140625 C 6.910156 11.140625 6.722656 10.960938 6.703125 10.609375 C 6.679688 10.453125 6.722656 10.316406 6.828125 10.203125 C 6.941406 10.085938 7.066406 10.03125 7.203125 10.03125 C 9.742188 9.832031 12.085938 9.273438 14.234375 8.359375 C 16.390625 7.453125 18.269531 6.226562 19.875 4.6875 C 21.488281 3.15625 22.742188 1.359375 23.640625 -0.703125 C 24.222656 -2.023438 24.59375 -3.335938 24.75 -4.640625 C 24.90625 -5.941406 24.851562 -7.15625 24.59375 -8.28125 C 24.332031 -9.40625 23.867188 -10.382812 23.203125 -11.21875 C 22.117188 -12.5625 20.625 -13.359375 18.71875 -13.609375 C 17.90625 -12.753906 16.976562 -11.914062 15.9375 -11.09375 C 14.894531 -10.269531 13.84375 -9.515625 12.78125 -8.828125 C 11.726562 -8.148438 10.738281 -7.59375 9.8125 -7.15625 C 8.882812 -6.71875 8.113281 -6.460938 7.5 -6.390625 C 7.070312 -4.285156 6.648438 -2.179688 6.234375 -0.078125 C 5.828125 2.015625 5.453125 3.992188 5.109375 5.859375 C 4.773438 7.722656 4.488281 9.394531 4.25 10.875 C 4.019531 12.351562 3.859375 13.539062 3.765625 14.4375 C 3.796875 14.332031 3.832031 14.234375 3.875 14.140625 C 3.9375 13.984375 4.039062 13.875 4.1875 13.8125 C 4.332031 13.757812 4.484375 13.757812 4.640625 13.8125 C 4.773438 13.875 4.867188 13.976562 4.921875 14.125 C 4.984375 14.269531 4.984375 14.410156 4.921875 14.546875 C 4.609375 15.304688 4.34375 15.867188 4.125 16.234375 C 3.90625 16.609375 3.65625 16.796875 3.375 16.796875 C 3.300781 16.796875 3.226562 16.773438 3.15625 16.734375 C 3.007812 16.691406 2.882812 16.585938 2.78125 16.421875 C 2.675781 16.265625 2.617188 15.9375 2.609375 15.4375 C 2.597656 14.9375 2.65625 14.1875 2.78125 13.1875 C 2.90625 12.1875 3.113281 10.84375 3.40625 9.15625 C 3.695312 7.46875 4.085938 5.328125 4.578125 2.734375 C 5.066406 0.148438 5.679688 -2.972656 6.421875 -6.640625 C 6.316406 -6.722656 6.226562 -6.847656 6.15625 -7.015625 C 6.09375 -7.179688 6.09375 -7.398438 6.15625 -7.671875 C 6.34375 -8.367188 6.632812 -9.039062 7.03125 -9.6875 C 7.195312 -10.570312 7.378906 -11.484375 7.578125 -12.421875 C 7.773438 -13.367188 7.96875 -14.347656 8.15625 -15.359375 C 8.644531 -17.734375 9.097656 -19.941406 9.515625 -21.984375 C 9.929688 -24.023438 10.273438 -25.796875 10.546875 -27.296875 C 9.640625 -27.054688 8.785156 -26.734375 7.984375 -26.328125 C 5.847656 -25.296875 4.332031 -23.851562 3.4375 -22 C 2.539062 -20.144531 2.347656 -18.050781 2.859375 -15.71875 C 2.898438 -15.5625 2.875 -15.421875 2.78125 -15.296875 C 2.695312 -15.171875 2.585938 -15.085938 2.453125 -15.046875 C 2.296875 -15.003906 2.148438 -15.023438 2.015625 -15.109375 C 1.878906 -15.203125 1.800781 -15.328125 1.78125 -15.484375 C 1.195312 -18.085938 1.40625 -20.421875 2.40625 -22.484375 C 3.40625 -24.554688 5.101562 -26.175781 7.5 -27.34375 C 8.519531 -27.851562 9.613281 -28.234375 10.78125 -28.484375 C 10.800781 -28.578125 10.820312 -28.664062 10.84375 -28.75 C 10.863281 -28.84375 10.882812 -28.941406 10.90625 -29.046875 C 10.925781 -29.191406 11 -29.304688 11.125 -29.390625 C 11.25 -29.484375 11.390625 -29.515625 11.546875 -29.484375 C 11.703125 -29.460938 11.820312 -29.382812 11.90625 -29.25 C 12 -29.125 12.023438 -28.984375 11.984375 -28.828125 C 11.984375 -28.816406 11.984375 -28.800781 11.984375 -28.78125 C 11.984375 -28.757812 11.984375 -28.738281 11.984375 -28.71875 C 13.285156 -28.894531 14.566406 -28.910156 15.828125 -28.765625 C 17.097656 -28.617188 18.242188 -28.3125 19.265625 -27.84375 C 20.296875 -27.375 21.132812 -26.753906 21.78125 -25.984375 C 22.519531 -25.109375 22.941406 -24.171875 23.046875 -23.171875 C 23.148438 -22.179688 23.054688 -21.203125 22.765625 -20.234375 C 22.472656 -19.265625 22.078125 -18.347656 21.578125 -17.484375 C 21.085938 -16.628906 20.609375 -15.894531 20.140625 -15.28125 C 19.984375 -15.039062 19.800781 -14.804688 19.59375 -14.578125 C 21.476562 -14.191406 22.972656 -13.304688 24.078125 -11.921875 Z M 7.71875 -7.546875 C 8.164062 -7.679688 8.75 -7.925781 9.46875 -8.28125 C 10.1875 -8.632812 10.992188 -9.082031 11.890625 -9.625 C 12.785156 -10.164062 13.691406 -10.773438 14.609375 -11.453125 C 15.535156 -12.140625 16.410156 -12.878906 17.234375 -13.671875 C 16.472656 -13.671875 15.675781 -13.582031 14.84375 -13.40625 C 14.019531 -13.25 13.179688 -12.988281 12.328125 -12.625 C 11.472656 -12.269531 10.675781 -11.816406 9.9375 -11.265625 C 9.195312 -10.710938 8.578125 -10.046875 8.078125 -9.265625 C 8.015625 -8.972656 7.953125 -8.6875 7.890625 -8.40625 C 7.835938 -8.125 7.78125 -7.835938 7.71875 -7.546875 Z M 18.28125 -14.78125 C 18.644531 -15.164062 18.972656 -15.554688 19.265625 -15.953125 C 20.691406 -17.867188 21.550781 -19.625 21.84375 -21.21875 C 22.132812 -22.8125 21.832031 -24.15625 20.9375 -25.25 C 20.351562 -25.945312 19.578125 -26.5 18.609375 -26.90625 C 17.648438 -27.320312 16.570312 -27.582031 15.375 -27.6875 C 14.1875 -27.789062 12.976562 -27.738281 11.75 -27.53125 C 11.476562 -26.03125 11.125 -24.210938 10.6875 -22.078125 C 10.25 -19.953125 9.773438 -17.644531 9.265625 -15.15625 C 9.148438 -14.570312 9.03125 -13.976562 8.90625 -13.375 C 8.78125 -12.78125 8.660156 -12.171875 8.546875 -11.546875 C 9.304688 -12.265625 10.203125 -12.875 11.234375 -13.375 C 12.273438 -13.882812 13.410156 -14.265625 14.640625 -14.515625 C 15.921875 -14.773438 17.132812 -14.863281 18.28125 -14.78125 Z M 18.28125 -14.78125 "/></g></g></g><g fill="#000000" fill-opacity="1"><g transform="translate(117.99417, 31.656773)"><g><path d="M 10.546875 -6.359375 C 10.691406 -6.253906 10.769531 -6.125 10.78125 -5.96875 C 10.800781 -5.820312 10.765625 -5.6875 10.671875 -5.5625 C 10.160156 -4.925781 9.570312 -4.351562 8.90625 -3.84375 C 8.238281 -3.34375 7.539062 -2.96875 6.8125 -2.71875 C 6.082031 -2.476562 5.375 -2.4375 4.6875 -2.59375 C 4.414062 -1.914062 4.03125 -1.390625 3.53125 -1.015625 C 3.039062 -0.648438 2.546875 -0.46875 2.046875 -0.46875 C 2.046875 -0.46875 2.039062 -0.46875 2.03125 -0.46875 C 2.019531 -0.46875 2.015625 -0.46875 2.015625 -0.46875 C 1.484375 -0.488281 1.019531 -0.664062 0.625 -1 C 0.226562 -1.34375 -0.046875 -1.816406 -0.203125 -2.421875 C -0.378906 -3.097656 -0.40625 -3.742188 -0.28125 -4.359375 C -0.164062 -4.972656 0.0390625 -5.507812 0.34375 -5.96875 C 0.65625 -6.4375 1.007812 -6.800781 1.40625 -7.0625 C 1.539062 -7.15625 1.691406 -7.171875 1.859375 -7.109375 C 2.035156 -7.535156 2.285156 -7.863281 2.609375 -8.09375 C 2.929688 -8.332031 3.265625 -8.425781 3.609375 -8.375 C 3.828125 -8.332031 4.0625 -8.195312 4.3125 -7.96875 C 4.5625 -7.75 4.765625 -7.351562 4.921875 -6.78125 C 5.078125 -6.207031 5.128906 -5.363281 5.078125 -4.25 C 5.054688 -4.0625 5.023438 -3.867188 4.984375 -3.671875 C 5.503906 -3.578125 6.054688 -3.632812 6.640625 -3.84375 C 7.222656 -4.0625 7.785156 -4.390625 8.328125 -4.828125 C 8.878906 -5.265625 9.359375 -5.742188 9.765625 -6.265625 C 9.859375 -6.378906 9.984375 -6.445312 10.140625 -6.46875 C 10.296875 -6.488281 10.429688 -6.453125 10.546875 -6.359375 Z M 2.046875 -1.609375 C 2.296875 -1.609375 2.578125 -1.722656 2.890625 -1.953125 C 3.203125 -2.179688 3.453125 -2.53125 3.640625 -3 C 2.941406 -3.394531 2.441406 -3.84375 2.140625 -4.34375 C 1.835938 -4.851562 1.675781 -5.359375 1.65625 -5.859375 C 1.25 -5.472656 0.984375 -4.976562 0.859375 -4.375 C 0.734375 -3.769531 0.738281 -3.222656 0.875 -2.734375 C 0.9375 -2.523438 1.050781 -2.285156 1.21875 -2.015625 C 1.394531 -1.742188 1.671875 -1.609375 2.046875 -1.609375 Z M 3.9375 -4.3125 C 3.976562 -5.09375 3.960938 -5.695312 3.890625 -6.125 C 3.828125 -6.550781 3.742188 -6.84375 3.640625 -7 C 3.546875 -7.15625 3.476562 -7.242188 3.4375 -7.265625 C 3.414062 -7.265625 3.40625 -7.265625 3.40625 -7.265625 C 3.351562 -7.265625 3.265625 -7.203125 3.140625 -7.078125 C 3.023438 -6.960938 2.929688 -6.789062 2.859375 -6.5625 C 2.742188 -6.1875 2.753906 -5.78125 2.890625 -5.34375 C 3.023438 -4.90625 3.375 -4.503906 3.9375 -4.140625 C 3.9375 -4.203125 3.9375 -4.257812 3.9375 -4.3125 Z M 3.9375 -4.3125 "/></g></g></g><g fill="#000000" fill-opacity="1"><g transform="translate(127.318465, 31.656773)"><g><path d="M 11.640625 -6.296875 C 11.753906 -6.222656 11.828125 -6.109375 11.859375 -5.953125 C 11.898438 -5.796875 11.882812 -5.660156 11.8125 -5.546875 C 11.65625 -5.285156 11.40625 -4.894531 11.0625 -4.375 C 10.71875 -3.851562 10.304688 -3.273438 9.828125 -2.640625 C 9.359375 -2.003906 8.851562 -1.390625 8.3125 -0.796875 C 7.78125 -0.203125 7.253906 0.285156 6.734375 0.671875 C 6.210938 1.054688 5.726562 1.25 5.28125 1.25 C 5.125 1.25 4.988281 1.222656 4.875 1.171875 C 4.382812 0.992188 4.078125 0.546875 3.953125 -0.171875 C 3.828125 -0.890625 3.867188 -1.929688 4.078125 -3.296875 C 3.828125 -2.960938 3.554688 -2.617188 3.265625 -2.265625 C 2.972656 -1.921875 2.660156 -1.601562 2.328125 -1.3125 C 1.828125 -0.882812 1.398438 -0.707031 1.046875 -0.78125 C 0.703125 -0.863281 0.46875 -0.960938 0.34375 -1.078125 C 0 -1.367188 -0.210938 -1.8125 -0.296875 -2.40625 C -0.390625 -3 -0.363281 -3.660156 -0.21875 -4.390625 C -0.0703125 -5.117188 0.191406 -5.820312 0.578125 -6.5 C 0.660156 -6.632812 0.78125 -6.722656 0.9375 -6.765625 C 1.09375 -6.804688 1.238281 -6.785156 1.375 -6.703125 C 1.507812 -6.628906 1.59375 -6.519531 1.625 -6.375 C 1.664062 -6.226562 1.648438 -6.085938 1.578125 -5.953125 C 1.222656 -5.367188 0.988281 -4.789062 0.875 -4.21875 C 0.757812 -3.644531 0.722656 -3.148438 0.765625 -2.734375 C 0.816406 -2.328125 0.910156 -2.066406 1.046875 -1.953125 C 1.128906 -1.890625 1.234375 -1.898438 1.359375 -1.984375 C 1.484375 -2.078125 1.566406 -2.132812 1.609375 -2.15625 C 1.972656 -2.488281 2.320312 -2.867188 2.65625 -3.296875 C 2.988281 -3.722656 3.269531 -4.109375 3.5 -4.453125 C 3.8125 -4.890625 4.066406 -5.207031 4.265625 -5.40625 C 4.472656 -5.613281 4.710938 -5.660156 4.984375 -5.546875 C 5.253906 -5.441406 5.390625 -5.222656 5.390625 -4.890625 C 5.390625 -4.566406 5.34375 -4.125 5.25 -3.5625 C 5.050781 -2.425781 4.960938 -1.601562 4.984375 -1.09375 C 5.003906 -0.582031 5.050781 -0.253906 5.125 -0.109375 C 5.207031 0.0351562 5.257812 0.109375 5.28125 0.109375 C 5.507812 0.210938 6.148438 -0.242188 7.203125 -1.265625 C 8.253906 -2.285156 9.46875 -3.90625 10.84375 -6.125 C 10.925781 -6.257812 11.039062 -6.34375 11.1875 -6.375 C 11.34375 -6.40625 11.492188 -6.378906 11.640625 -6.296875 Z M 11.640625 -6.296875 "/></g></g></g><g fill="#000000" fill-opacity="1"><g transform="translate(137.750016, 31.656773)"><g><path d="M 8.578125 -27.3125 C 8.828125 -26.945312 8.828125 -26.203125 8.578125 -25.078125 C 8.335938 -23.953125 7.835938 -22.554688 7.078125 -20.890625 C 6.328125 -19.222656 5.316406 -17.378906 4.046875 -15.359375 C 4.035156 -15.347656 4.019531 -15.332031 4 -15.3125 C 3.488281 -13.25 2.984375 -11.144531 2.484375 -9 C 1.992188 -6.863281 1.523438 -4.765625 1.078125 -2.703125 C 0.628906 -0.648438 0.222656 1.28125 -0.140625 3.09375 C -0.515625 4.914062 -0.832031 6.535156 -1.09375 7.953125 C -1.351562 9.378906 -1.539062 10.519531 -1.65625 11.375 C -1.632812 11.375 -1.617188 11.375 -1.609375 11.375 C -1.453125 11.425781 -1.335938 11.519531 -1.265625 11.65625 C -1.203125 11.789062 -1.195312 11.9375 -1.25 12.09375 C -1.382812 12.46875 -1.523438 12.804688 -1.671875 13.109375 C -1.816406 13.410156 -2.019531 13.5625 -2.28125 13.5625 C -2.332031 13.5625 -2.398438 13.550781 -2.484375 13.53125 C -2.648438 13.46875 -2.769531 13.34375 -2.84375 13.15625 C -2.925781 12.976562 -2.9375 12.609375 -2.875 12.046875 C -2.820312 11.492188 -2.695312 10.644531 -2.5 9.5 C -2.15625 7.40625 -1.632812 4.664062 -0.9375 1.28125 C -0.425781 -1.09375 0.101562 -3.507812 0.65625 -5.96875 C 1.207031 -8.425781 1.753906 -10.796875 2.296875 -13.078125 C 2.847656 -15.359375 3.375 -17.429688 3.875 -19.296875 C 3.976562 -19.671875 4.125 -20.1875 4.3125 -20.84375 C 4.507812 -21.507812 4.734375 -22.21875 4.984375 -22.96875 C 5.234375 -23.726562 5.515625 -24.457031 5.828125 -25.15625 C 6.140625 -25.863281 6.457031 -26.441406 6.78125 -26.890625 C 7.113281 -27.347656 7.445312 -27.609375 7.78125 -27.671875 C 8.113281 -27.722656 8.378906 -27.601562 8.578125 -27.3125 Z M 5.015625 -19.21875 C 5.953125 -20.96875 6.609375 -22.425781 6.984375 -23.59375 C 7.359375 -24.757812 7.578125 -25.601562 7.640625 -26.125 C 7.367188 -25.738281 7 -25.003906 6.53125 -23.921875 C 6.0625 -22.835938 5.554688 -21.269531 5.015625 -19.21875 Z M 5.015625 -19.21875 "/></g></g></g><g fill="#000000" fill-opacity="1"><g transform="translate(142.179051, 31.656773)"><g><path d="M 24.609375 -17.203125 C 24.703125 -17.085938 24.738281 -16.953125 24.71875 -16.796875 C 24.695312 -16.640625 24.617188 -16.515625 24.484375 -16.421875 C 24.253906 -16.265625 24.035156 -16.269531 23.828125 -16.4375 C 23.566406 -16.539062 22.984375 -16.609375 22.078125 -16.640625 C 21.179688 -16.679688 20.050781 -16.707031 18.6875 -16.71875 C 17.320312 -16.726562 15.820312 -16.722656 14.1875 -16.703125 C 12.5625 -16.679688 10.890625 -16.65625 9.171875 -16.625 C 7.453125 -16.601562 5.785156 -16.570312 4.171875 -16.53125 C 3.566406 -14 2.929688 -11.25 2.265625 -8.28125 C 1.609375 -5.320312 0.960938 -2.316406 0.328125 0.734375 C -0.515625 4.734375 -1.160156 8.015625 -1.609375 10.578125 C -2.066406 13.148438 -2.363281 15.007812 -2.5 16.15625 C -2.46875 16.15625 -2.429688 16.164062 -2.390625 16.1875 C -2.234375 16.21875 -2.125 16.304688 -2.0625 16.453125 C -2.007812 16.597656 -2.007812 16.738281 -2.0625 16.875 C -2.1875 17.207031 -2.320312 17.515625 -2.46875 17.796875 C -2.613281 18.078125 -2.8125 18.21875 -3.0625 18.21875 C -3.125 18.21875 -3.191406 18.207031 -3.265625 18.1875 C -3.535156 18.09375 -3.6875 17.882812 -3.71875 17.5625 C -3.75 17.238281 -3.722656 16.796875 -3.640625 16.234375 C -3.566406 15.421875 -3.394531 14.25 -3.125 12.71875 C -2.882812 11.269531 -2.578125 9.582031 -2.203125 7.65625 C -1.835938 5.738281 -1.414062 3.632812 -0.9375 1.34375 C -0.289062 -1.769531 0.367188 -4.859375 1.046875 -7.921875 C 1.722656 -10.992188 2.375 -13.851562 3 -16.5 C 2.070312 -16.476562 1.1875 -16.457031 0.34375 -16.4375 C -0.488281 -16.425781 -1.242188 -16.410156 -1.921875 -16.390625 C -3.222656 -16.347656 -4.359375 -16.316406 -5.328125 -16.296875 C -6.304688 -16.273438 -7 -16.265625 -7.40625 -16.265625 C -7.5625 -16.265625 -7.691406 -16.316406 -7.796875 -16.421875 C -7.898438 -16.535156 -7.953125 -16.671875 -7.953125 -16.828125 C -7.953125 -16.984375 -7.898438 -17.113281 -7.796875 -17.21875 C -7.691406 -17.320312 -7.5625 -17.375 -7.40625 -17.375 C -7 -17.375 -6.3125 -17.390625 -5.34375 -17.421875 C -4.382812 -17.453125 -3.253906 -17.484375 -1.953125 -17.515625 C -1.015625 -17.535156 -0.113281 -17.554688 0.75 -17.578125 C 1.625 -17.597656 2.472656 -17.617188 3.296875 -17.640625 C 3.585938 -18.878906 3.875 -20.046875 4.15625 -21.140625 C 4.4375 -22.242188 4.703125 -23.253906 4.953125 -24.171875 C 4.992188 -24.328125 5.082031 -24.441406 5.21875 -24.515625 C 5.351562 -24.597656 5.488281 -24.617188 5.625 -24.578125 C 5.78125 -24.535156 5.894531 -24.445312 5.96875 -24.3125 C 6.050781 -24.175781 6.070312 -24.03125 6.03125 -23.875 C 5.5625 -22.144531 5.03125 -20.078125 4.4375 -17.671875 C 7.46875 -17.722656 10.0625 -17.765625 12.21875 -17.796875 C 14.375 -17.828125 16.179688 -17.84375 17.640625 -17.84375 C 19.097656 -17.84375 20.273438 -17.820312 21.171875 -17.78125 C 22.078125 -17.75 22.765625 -17.707031 23.234375 -17.65625 C 23.703125 -17.601562 24.03125 -17.535156 24.21875 -17.453125 C 24.414062 -17.378906 24.546875 -17.296875 24.609375 -17.203125 Z M 24.609375 -17.203125 "/></g></g></g><g fill="#000000" fill-opacity="1"><g transform="translate(146.054469, 31.656773)"><g><path d="M 10.546875 -6.359375 C 10.691406 -6.253906 10.769531 -6.125 10.78125 -5.96875 C 10.800781 -5.820312 10.765625 -5.6875 10.671875 -5.5625 C 10.160156 -4.925781 9.570312 -4.351562 8.90625 -3.84375 C 8.238281 -3.34375 7.539062 -2.96875 6.8125 -2.71875 C 6.082031 -2.476562 5.375 -2.4375 4.6875 -2.59375 C 4.414062 -1.914062 4.03125 -1.390625 3.53125 -1.015625 C 3.039062 -0.648438 2.546875 -0.46875 2.046875 -0.46875 C 2.046875 -0.46875 2.039062 -0.46875 2.03125 -0.46875 C 2.019531 -0.46875 2.015625 -0.46875 2.015625 -0.46875 C 1.484375 -0.488281 1.019531 -0.664062 0.625 -1 C 0.226562 -1.34375 -0.046875 -1.816406 -0.203125 -2.421875 C -0.378906 -3.097656 -0.40625 -3.742188 -0.28125 -4.359375 C -0.164062 -4.972656 0.0390625 -5.507812 0.34375 -5.96875 C 0.65625 -6.4375 1.007812 -6.800781 1.40625 -7.0625 C 1.539062 -7.15625 1.691406 -7.171875 1.859375 -7.109375 C 2.035156 -7.535156 2.285156 -7.863281 2.609375 -8.09375 C 2.929688 -8.332031 3.265625 -8.425781 3.609375 -8.375 C 3.828125 -8.332031 4.0625 -8.195312 4.3125 -7.96875 C 4.5625 -7.75 4.765625 -7.351562 4.921875 -6.78125 C 5.078125 -6.207031 5.128906 -5.363281 5.078125 -4.25 C 5.054688 -4.0625 5.023438 -3.867188 4.984375 -3.671875 C 5.503906 -3.578125 6.054688 -3.632812 6.640625 -3.84375 C 7.222656 -4.0625 7.785156 -4.390625 8.328125 -4.828125 C 8.878906 -5.265625 9.359375 -5.742188 9.765625 -6.265625 C 9.859375 -6.378906 9.984375 -6.445312 10.140625 -6.46875 C 10.296875 -6.488281 10.429688 -6.453125 10.546875 -6.359375 Z M 2.046875 -1.609375 C 2.296875 -1.609375 2.578125 -1.722656 2.890625 -1.953125 C 3.203125 -2.179688 3.453125 -2.53125 3.640625 -3 C 2.941406 -3.394531 2.441406 -3.84375 2.140625 -4.34375 C 1.835938 -4.851562 1.675781 -5.359375 1.65625 -5.859375 C 1.25 -5.472656 0.984375 -4.976562 0.859375 -4.375 C 0.734375 -3.769531 0.738281 -3.222656 0.875 -2.734375 C 0.9375 -2.523438 1.050781 -2.285156 1.21875 -2.015625 C 1.394531 -1.742188 1.671875 -1.609375 2.046875 -1.609375 Z M 3.9375 -4.3125 C 3.976562 -5.09375 3.960938 -5.695312 3.890625 -6.125 C 3.828125 -6.550781 3.742188 -6.84375 3.640625 -7 C 3.546875 -7.15625 3.476562 -7.242188 3.4375 -7.265625 C 3.414062 -7.265625 3.40625 -7.265625 3.40625 -7.265625 C 3.351562 -7.265625 3.265625 -7.203125 3.140625 -7.078125 C 3.023438 -6.960938 2.929688 -6.789062 2.859375 -6.5625 C 2.742188 -6.1875 2.753906 -5.78125 2.890625 -5.34375 C 3.023438 -4.90625 3.375 -4.503906 3.9375 -4.140625 C 3.9375 -4.203125 3.9375 -4.257812 3.9375 -4.3125 Z M 3.9375 -4.3125 "/></g></g></g><g fill="#000000" fill-opacity="1"><g transform="translate(155.378765, 31.656773)"><g><path d="M 11.75 -6.5 C 11.882812 -6.425781 11.972656 -6.316406 12.015625 -6.171875 C 12.054688 -6.023438 12.035156 -5.882812 11.953125 -5.75 C 11.035156 -4.132812 10.210938 -2.894531 9.484375 -2.03125 C 8.753906 -1.164062 8.015625 -0.78125 7.265625 -0.875 C 6.285156 -0.988281 5.515625 -2.039062 4.953125 -4.03125 C 4.765625 -4.664062 4.597656 -5.125 4.453125 -5.40625 C 4.304688 -5.6875 4.1875 -5.859375 4.09375 -5.921875 C 4.007812 -5.992188 3.945312 -6.03125 3.90625 -6.03125 C 3.84375 -6.050781 3.722656 -5.992188 3.546875 -5.859375 C 3.378906 -5.722656 3.128906 -5.421875 2.796875 -4.953125 C 2.460938 -4.484375 2.050781 -3.757812 1.5625 -2.78125 C 1.082031 -1.800781 0.492188 -0.457031 -0.203125 1.25 C -0.296875 1.488281 -0.460938 1.609375 -0.703125 1.609375 C -0.753906 1.609375 -0.800781 1.597656 -0.84375 1.578125 C -1.175781 1.492188 -1.320312 1.289062 -1.28125 0.96875 C -1.1875 0.164062 -1.007812 -0.753906 -0.75 -1.796875 C -0.5 -2.847656 -0.222656 -3.914062 0.078125 -5 C 0.378906 -6.09375 0.65625 -7.070312 0.90625 -7.9375 C 0.957031 -8.125 1.007812 -8.300781 1.0625 -8.46875 C 1.113281 -8.632812 1.160156 -8.796875 1.203125 -8.953125 C 1.253906 -9.109375 1.347656 -9.21875 1.484375 -9.28125 C 1.617188 -9.351562 1.753906 -9.367188 1.890625 -9.328125 C 2.046875 -9.285156 2.160156 -9.195312 2.234375 -9.0625 C 2.316406 -8.925781 2.332031 -8.78125 2.28125 -8.625 C 2.238281 -8.46875 2.191406 -8.304688 2.140625 -8.140625 C 2.085938 -7.984375 2.035156 -7.804688 1.984375 -7.609375 C 1.847656 -7.109375 1.691406 -6.554688 1.515625 -5.953125 C 1.335938 -5.347656 1.160156 -4.734375 0.984375 -4.109375 C 1.648438 -5.359375 2.210938 -6.1875 2.671875 -6.59375 C 3.140625 -7 3.570312 -7.191406 3.96875 -7.171875 C 4.507812 -7.128906 4.9375 -6.828125 5.25 -6.265625 C 5.5625 -5.703125 5.820312 -5.050781 6.03125 -4.3125 C 6.320312 -3.300781 6.59375 -2.660156 6.84375 -2.390625 C 7.101562 -2.117188 7.289062 -1.984375 7.40625 -1.984375 C 7.65625 -1.941406 7.953125 -2.082031 8.296875 -2.40625 C 8.640625 -2.726562 8.976562 -3.132812 9.3125 -3.625 C 9.65625 -4.125 9.976562 -4.613281 10.28125 -5.09375 C 10.582031 -5.582031 10.8125 -5.984375 10.96875 -6.296875 C 11.039062 -6.429688 11.15625 -6.519531 11.3125 -6.5625 C 11.46875 -6.601562 11.613281 -6.582031 11.75 -6.5 Z M 11.75 -6.5 "/></g></g></g></g></g></g></svg>